     
___________________________________________________________________________________
Armin van Buuren ft. Kirsty - Free Of War (Loverush UK Radio Edit Official Video).mp4 AND Armin Van Buuren Ft. Kirsty B - Free Of War (Original Mix).Mp3
TOTAL SIZE: 80.47 Mb
-----------------------------------------------------------------------------------

   General
      Complete name : Armin van Buuren ft. Kirsty - Free Of War (Loverush UK Radio Edit Official Video).mp4
      Format : MPEG-4
      Format profile : Base Media / Version 2
      Codec ID : mp42
      File size : 72.5 MiB
      Duration : 3mn 21s
      Overall bit rate mode : Variable
      Overall bit rate : 3 023 Kbps
      Encoded date : UTC 2012-10-08 07:21:28
      Tagged date : UTC 2012-10-08 07:21:28
      gsst : 0
      gstd : 201316
      gssd : B4D58DD0AMH1349908008656647


   Video #1   http://bayimg.com/MaHLCAaeD
      ID : 1
      Format : AVC
      Format/Info : Advanced Video Codec
      Format profile : High@L4.0
      Format settings, CABAC : Yes
      Format settings, ReFrames : 1 frame
      Codec ID : avc1
      Codec ID/Info : Advanced Video Coding
      Duration : 3mn 21s
      Bit rate : 2 828 Kbps
      Maximum bit rate : 9 191 Kbps
      Width : 1 920 pixels
      Height : 828 pixels
      Display aspect ratio : 2.35:1
      Frame rate mode : Constant
      Frame rate : 25.000 fps
      Color space : YUV
      Chroma subsampling : 4:2:0
      Bit depth : 8 bits
      Scan type : Progressive
      Bits/(Pixel*Frame) : 0.071
      Stream size : 67.8 MiB (94%)
      Tagged date : UTC 2012-10-08 07:21:28


   Audio #2
      ID : 2
      Format : AAC
      Format/Info : Advanced Audio Codec
      Format profile : LC
      Codec ID : 40
      Duration : 3mn 21s
      Bit rate mode : Variable
      Bit rate : 192 Kbps
      Maximum bit rate : 202 Kbps
      Channel(s) : 2 channels
      Channel positions : Front: L R
      Sampling rate : 44.1 KHz
      Compression mode : Lossy
      Stream size : 4.60 MiB (6%)
      Title : IsoMedia File Produced by Google, 5-11-2011
      Encoded date : UTC 2012-10-08 07:21:28
      Tagged date : UTC 2012-10-08 07:21:28

___________________________________________________________________________________

 Armin Van Buuren's latest single remains faithful to the sound we have all grown to love the last decade of his career. "Free of War" lacks the intensity of the bass found many Trance-like songs, rather, it focuses on soft, comfy melodies which complement Kirsty B's beautiful vocals.
 They lyrics are gorgeous and truly aid in the blissful message this track is sending. Not to anyone's surprise, "Free of War" is exactly the type of song we have come to anticipate from Armin, a spiritual journey through the clouds of an ecstasy filled dreamscape.

___________________________________________________________________________________


Artist................: Armin van Buuren Feat. Kirsty B

Title.................: Free Of War (Original Mix) 

Year Of Release.......: 2012

Source................: WEB, Single

Genre.................: Electronic

Style.................: Vocal Trance

Format................: Mp3

Quality...............: 320 kbps CBR / 44.1 kHz / Full Stereo

Encoder...............: LAME v3.97

Total Time............: 05:11

Total Size............: ~ 11.9 Mb




     Tracklist:
     ---------


01.  Free Of War (Original Mix)                           05:11

